<?xml version="1.0" encoding="UTF-8"?>
<svg xmlns="http://www.w3.org/2000/svg" xmlns:xlink="http://www.w3.org/1999/xlink" viewBox="0 0 64 64" version="1.1" width="64px" height="64px">
<g id="surface1">
<path style=" fill:#72CAAF;" d="M 55 49 L 9 49 C 7.894531 49 7 48.105469 7 47 L 7 19 C 7 17.894531 7.894531 17 9 17 L 55 17 C 56.105469 17 57 17.894531 57 19 L 57 47 C 57 48.105469 56.105469 49 55 49 Z "/>
<path style=" fill:#C2CDE7;" d="M 53.988281 17 L 10.011719 17 C 10.269531 12.539063 13.96875 9 18.5 9 C 19.699219 9 20.839844 9.25 21.871094 9.699219 C 22.148438 9.050781 22.480469 8.441406 22.871094 7.871094 C 24.851563 4.929688 28.199219 3 32 3 C 35.679688 3 38.929688 4.800781 40.929688 7.578125 C 41.410156 8.238281 41.808594 8.949219 42.128906 9.699219 C 43.160156 9.25 44.300781 9 45.5 9 C 50.03125 9 53.730469 12.539063 53.988281 17 Z "/>
<path style=" fill:#CED9ED;" d="M 39.761719 8.882813 L 39.75 8.890625 C 39.003906 9.722656 37.703125 9.78125 36.90625 9 C 35.621094 7.742188 33.871094 7 32 7 C 30.050781 7 28.230469 7.800781 26.929688 9.160156 C 26.175781 9.941406 24.90625 9.90625 24.140625 9.140625 L 24.136719 9.136719 C 23.371094 8.371094 23.347656 7.128906 24.101563 6.351563 C 26.101563 4.28125 28.902344 3 32 3 C 34.976563 3 37.667969 4.175781 39.648438 6.09375 C 40.425781 6.847656 40.484375 8.074219 39.761719 8.882813 Z "/>
<path style=" fill:#5DBC9D;" d="M 7.035156 47 C 7.039063 48.105469 7.933594 49 9.035156 49 L 55 49 C 56.105469 49 57 48.105469 57 47 C 57 45.34375 55.65625 44 54 44 L 10.035156 44 C 8.378906 44 7.035156 45.34375 7.035156 47 Z "/>
<path style=" fill:#FFF6DF;" d="M 22 33 C 22 34.105469 21.105469 35 20 35 C 18.894531 35 18 34.105469 18 33 C 18 31.894531 18.894531 31 20 31 C 21.105469 31 22 31.894531 22 33 Z "/>
<path style=" fill:#FFF6DF;" d="M 34 33 C 34 34.105469 33.105469 35 32 35 C 30.894531 35 30 34.105469 30 33 C 30 31.894531 30.894531 31 32 31 C 33.105469 31 34 31.894531 34 33 Z "/>
<path style=" fill:#FFF6DF;" d="M 46 33 C 46 34.105469 45.105469 35 44 35 C 42.894531 35 42 34.105469 42 33 C 42 31.894531 42.894531 31 44 31 C 45.105469 31 46 31.894531 46 33 Z "/>
<path style=" fill:#8D6C9F;" d="M 55 16 L 54.882813 16 C 54.160156 11.445313 50.207031 8 45.5 8 C 44.519531 8 43.5625 8.148438 42.636719 8.441406 C 40.578125 4.5 36.5 2 32 2 C 27.5 2 23.421875 4.5 21.363281 8.441406 C 20.4375 8.148438 19.480469 8 18.5 8 C 13.792969 8 9.839844 11.445313 9.117188 16 L 9 16 C 7.347656 16 6 17.347656 6 19 L 6 47 C 6 48.652344 7.347656 50 9 50 L 14 50 L 14 61 C 14 61.550781 13.550781 62 13 62 C 12.449219 62 12 62.445313 12 63 C 12 63.554688 12.449219 64 13 64 C 14.652344 64 16 62.652344 16 61 L 16 50 L 20 50 L 20 61 C 20 61.550781 19.550781 62 19 62 C 18.449219 62 18 62.445313 18 63 C 18 63.554688 18.449219 64 19 64 C 20.652344 64 22 62.652344 22 61 L 22 50 L 42 50 L 42 61 C 42 61.550781 41.550781 62 41 62 C 40.449219 62 40 62.445313 40 63 C 40 63.554688 40.449219 64 41 64 C 42.652344 64 44 62.652344 44 61 L 44 50 L 48 50 L 48 61 C 48 61.550781 47.550781 62 47 62 C 46.449219 62 46 62.445313 46 63 C 46 63.554688 46.449219 64 47 64 C 48.652344 64 50 62.652344 50 61 L 50 50 L 55 50 C 56.652344 50 58 48.652344 58 47 L 58 19 C 58 17.347656 56.652344 16 55 16 Z M 18.5 10 C 19.53125 10 20.53125 10.207031 21.476563 10.617188 C 21.722656 10.722656 21.996094 10.726563 22.246094 10.628906 C 22.492188 10.527344 22.691406 10.335938 22.792969 10.089844 C 24.367188 6.390625 27.980469 4 32 4 C 36.019531 4 39.632813 6.390625 41.207031 10.089844 C 41.308594 10.335938 41.507813 10.527344 41.753906 10.628906 C 42.003906 10.726563 42.277344 10.722656 42.523438 10.617188 C 43.46875 10.207031 44.46875 10 45.5 10 C 49.105469 10 52.144531 12.5625 52.839844 16 L 11.160156 16 C 11.855469 12.5625 14.894531 10 18.5 10 Z M 56 47 C 56 47.550781 55.550781 48 55 48 L 9 48 C 8.449219 48 8 47.550781 8 47 L 8 19 C 8 18.449219 8.449219 18 9 18 L 9.984375 18 C 9.996094 18 10.007813 18 10.015625 18 C 10.015625 18 10.019531 18 10.019531 18 L 55 18 C 55.550781 18 56 18.449219 56 19 Z "/>
<path style=" fill:#8D6C9F;" d="M 20 30 C 18.347656 30 17 31.347656 17 33 C 17 34.652344 18.347656 36 20 36 C 21.652344 36 23 34.652344 23 33 C 23 31.347656 21.652344 30 20 30 Z M 20 34.199219 C 19.339844 34.199219 18.800781 33.660156 18.800781 33 C 18.800781 32.339844 19.339844 31.800781 20 31.800781 C 20.660156 31.800781 21.199219 32.339844 21.199219 33 C 21.199219 33.660156 20.660156 34.199219 20 34.199219 Z "/>
<path style=" fill:#8D6C9F;" d="M 32.019531 30 C 30.363281 30 29.019531 31.347656 29.019531 33 C 29.019531 34.652344 30.363281 36 32.019531 36 C 33.671875 36 35.019531 34.652344 35.019531 33 C 35.019531 31.347656 33.671875 30 32.019531 30 Z M 32.019531 34.199219 C 31.355469 34.199219 30.816406 33.660156 30.816406 33 C 30.816406 32.339844 31.355469 31.800781 32.019531 31.800781 C 32.679688 31.800781 33.21875 32.339844 33.21875 33 C 33.21875 33.660156 32.679688 34.199219 32.019531 34.199219 Z "/>
<path style=" fill:#8D6C9F;" d="M 47 33 C 47 31.347656 45.652344 30 44 30 C 42.347656 30 41 31.347656 41 33 C 41 34.652344 42.347656 36 44 36 C 45.652344 36 47 34.652344 47 33 Z M 44 34.199219 C 43.339844 34.199219 42.800781 33.660156 42.800781 33 C 42.800781 32.339844 43.339844 31.800781 44 31.800781 C 44.660156 31.800781 45.199219 32.339844 45.199219 33 C 45.199219 33.660156 44.660156 34.199219 44 34.199219 Z "/>
<path style=" fill:#8D6C9F;" d="M 12 42 C 11.449219 42 11 42.445313 11 43 L 11 45 C 11 45.554688 11.449219 46 12 46 C 12.550781 46 13 45.554688 13 45 L 13 43 C 13 42.445313 12.550781 42 12 42 Z "/>
<path style=" fill:#8D6C9F;" d="M 17 42 C 16.449219 42 16 42.445313 16 43 L 16 45 C 16 45.554688 16.449219 46 17 46 C 17.550781 46 18 45.554688 18 45 L 18 43 C 18 42.445313 17.550781 42 17 42 Z "/>
<path style=" fill:#8D6C9F;" d="M 22 42 C 21.449219 42 21 42.445313 21 43 L 21 45 C 21 45.554688 21.449219 46 22 46 C 22.550781 46 23 45.554688 23 45 L 23 43 C 23 42.445313 22.550781 42 22 42 Z "/>
<path style=" fill:#8D6C9F;" d="M 27 42 C 26.449219 42 26 42.445313 26 43 L 26 45 C 26 45.554688 26.449219 46 27 46 C 27.550781 46 28 45.554688 28 45 L 28 43 C 28 42.445313 27.550781 42 27 42 Z "/>
<path style=" fill:#8D6C9F;" d="M 32 42 C 31.449219 42 31 42.445313 31 43 L 31 45 C 31 45.554688 31.449219 46 32 46 C 32.550781 46 33 45.554688 33 45 L 33 43 C 33 42.445313 32.550781 42 32 42 Z "/>
<path style=" fill:#8D6C9F;" d="M 37 42 C 36.449219 42 36 42.445313 36 43 L 36 45 C 36 45.554688 36.449219 46 37 46 C 37.550781 46 38 45.554688 38 45 L 38 43 C 38 42.445313 37.550781 42 37 42 Z "/>
<path style=" fill:#8D6C9F;" d="M 42 42 C 41.449219 42 41 42.445313 41 43 L 41 45 C 41 45.554688 41.449219 46 42 46 C 42.550781 46 43 45.554688 43 45 L 43 43 C 43 42.445313 42.550781 42 42 42 Z "/>
<path style=" fill:#8D6C9F;" d="M 47 42 C 46.449219 42 46 42.445313 46 43 L 46 45 C 46 45.554688 46.449219 46 47 46 C 47.550781 46 48 45.554688 48 45 L 48 43 C 48 42.445313 47.550781 42 47 42 Z "/>
<path style=" fill:#8D6C9F;" d="M 52 42 C 51.449219 42 51 42.445313 51 43 L 51 45 C 51 45.554688 51.449219 46 52 46 C 52.550781 46 53 45.554688 53 45 L 53 43 C 53 42.445313 52.550781 42 52 42 Z "/>
</g>
</svg>
