<?xml version="1.0" encoding="UTF-8" standalone="no"?>
<svg
   xmlns:dc="http://purl.org/dc/elements/1.1/"
   xmlns:cc="http://creativecommons.org/ns#"
   xmlns:rdf="http://www.w3.org/1999/02/22-rdf-syntax-ns#"
   xmlns:svg="http://www.w3.org/2000/svg"
   xmlns="http://www.w3.org/2000/svg"
   xmlns:sodipodi="http://sodipodi.sourceforge.net/DTD/sodipodi-0.dtd"
   xmlns:inkscape="http://www.inkscape.org/namespaces/inkscape"
   width="52"
   height="38"
   viewBox="0 0 52 38"
   fill="none"
   version="1.1"
   id="svg4020"
   sodipodi:docname="email-white.svg"
   inkscape:version="">
  <metadata
     id="metadata4026">
    <rdf:RDF>
      <cc:Work
         rdf:about="">
        <dc:format>image/svg+xml</dc:format>
        <dc:type
           rdf:resource="http://purl.org/dc/dcmitype/StillImage" />
        <dc:title></dc:title>
      </cc:Work>
    </rdf:RDF>
  </metadata>
  <defs
     id="defs4024" />
  <sodipodi:namedview
     pagecolor="#ffffff"
     bordercolor="#666666"
     borderopacity="1"
     objecttolerance="10"
     gridtolerance="10"
     guidetolerance="10"
     inkscape:pageopacity="0"
     inkscape:pageshadow="2"
     inkscape:window-width="2534"
     inkscape:window-height="1322"
     id="namedview4022"
     showgrid="false"
     inkscape:zoom="6.2105263"
     inkscape:cx="26"
     inkscape:cy="19"
     inkscape:window-x="12"
     inkscape:window-y="105"
     inkscape:window-maximized="0"
     inkscape:current-layer="svg4020" />
  <path
     d="M2 6V2H50V5.5M2 6V36H50V5.5M2 6L25.5 24.5L50 5.5"
     stroke="black"
     stroke-width="3"
     id="path4018" />
  <path
     style="fill:#ffffff;stroke-width:0.16101696"
     d="M 0.59152542,18.983898 V 0.54745763 H 26.032203 51.472881 V 18.983898 37.420339 H 26.032203 0.59152542 Z M 48.574576,21.560169 c 0,-7.129025 -0.0562,-12.9618639 -0.124897,-12.9618639 -0.0687,0 -5.262686,3.9843889 -11.542206,8.8541969 C 26.979337,25.151838 25.45726,26.27852 25.237879,26.090649 24.719402,25.646641 3.8841995,9.2960099 3.6911017,9.1816015 3.5307763,9.0866104 3.4898305,11.652063 3.4898305,21.792192 V 34.522034 H 26.032203 48.574576 Z M 37.062787,13.744615 48.494068,4.8824501 48.543144,4.1641063 48.592221,3.4457627 H 26.033342 3.4744639 l 0.047938,0.9909651 0.047938,0.9909653 10.8686441,8.5776869 c 5.977754,4.717727 10.941517,8.583023 11.030584,8.589544 0.08907,0.0065 5.306015,-3.976119 11.593219,-8.850309 z"
     id="path4028"
     inkscape:connector-curvature="0" />
</svg>
