<svg width="31" height="31" viewBox="0 0 31 31" fill="none" xmlns="http://www.w3.org/2000/svg">
<path d="M15.5001 0C6.94071 0 0 7.11514 0 15.8924C0 22.9142 4.44123 28.8713 10.5999 30.9727C11.3745 31.1198 11.659 30.6279 11.659 30.2082C11.659 29.8292 11.6445 28.5772 11.638 27.2493C7.32571 28.2107 6.4158 25.3742 6.4158 25.3742C5.71073 23.5372 4.69481 23.0489 4.69481 23.0489C3.28856 22.0625 4.80082 22.0827 4.80082 22.0827C6.35733 22.1948 7.17692 23.7205 7.17692 23.7205C8.55934 26.1501 10.8029 25.4476 11.6874 25.0417C11.8265 24.0144 12.2283 23.3134 12.6715 22.9165C9.2288 22.5146 5.60959 21.1519 5.60959 15.0624C5.60959 13.3274 6.2151 11.9096 7.2067 10.7967C7.04575 10.3963 6.51524 8.77997 7.35683 6.5909C7.35683 6.5909 8.65842 6.16375 11.6205 8.21996C12.8568 7.86772 14.1828 7.69123 15.5001 7.68525C16.8173 7.69123 18.1443 7.86772 19.3831 8.21996C22.3416 6.16375 23.6413 6.5909 23.6413 6.5909C24.485 8.77997 23.9543 10.3963 23.7933 10.7967C24.7871 11.9096 25.3885 13.3273 25.3885 15.0624C25.3885 21.1663 21.7624 22.5104 18.311 22.9038C18.8669 23.397 19.3623 24.3642 19.3623 25.8468C19.3623 27.9732 19.3443 29.6847 19.3443 30.2082C19.3443 30.6311 19.6233 31.1266 20.4091 30.9706C26.5644 28.8668 31 22.9118 31 15.8924C31 7.11514 24.0603 0 15.5001 0Z" fill="#161614"/>
</svg>
