<?xml version="1.0" encoding="UTF-8" standalone="no"?>
<svg
   xmlns:dc="http://purl.org/dc/elements/1.1/"
   xmlns:cc="http://creativecommons.org/ns#"
   xmlns:rdf="http://www.w3.org/1999/02/22-rdf-syntax-ns#"
   xmlns:svg="http://www.w3.org/2000/svg"
   xmlns="http://www.w3.org/2000/svg"
   xmlns:sodipodi="http://sodipodi.sourceforge.net/DTD/sodipodi-0.dtd"
   xmlns:inkscape="http://www.inkscape.org/namespaces/inkscape"
   width="31"
   height="31"
   viewBox="0 0 31 31"
   fill="none"
   version="1.1"
   id="svg3836"
   sodipodi:docname="github-white.svg"
   inkscape:version="">
  <metadata
     id="metadata3842">
    <rdf:RDF>
      <cc:Work
         rdf:about="">
        <dc:format>image/svg+xml</dc:format>
        <dc:type
           rdf:resource="http://purl.org/dc/dcmitype/StillImage" />
        <dc:title></dc:title>
      </cc:Work>
    </rdf:RDF>
  </metadata>
  <defs
     id="defs3840" />
  <sodipodi:namedview
     pagecolor="#ffffff"
     bordercolor="#666666"
     borderopacity="1"
     objecttolerance="10"
     gridtolerance="10"
     guidetolerance="10"
     inkscape:pageopacity="0"
     inkscape:pageshadow="2"
     inkscape:window-width="2560"
     inkscape:window-height="1440"
     id="namedview3838"
     showgrid="false"
     inkscape:zoom="7.6129032"
     inkscape:cx="15.5"
     inkscape:cy="15.5"
     inkscape:window-x="0"
     inkscape:window-y="0"
     inkscape:window-maximized="0"
     inkscape:current-layer="svg3836" />
  <path
     d="M15.5001 0C6.94071 0 0 7.11514 0 15.8924C0 22.9142 4.44123 28.8713 10.5999 30.9727C11.3745 31.1198 11.659 30.6279 11.659 30.2082C11.659 29.8292 11.6445 28.5772 11.638 27.2493C7.32571 28.2107 6.4158 25.3742 6.4158 25.3742C5.71073 23.5372 4.69481 23.0489 4.69481 23.0489C3.28856 22.0625 4.80082 22.0827 4.80082 22.0827C6.35733 22.1948 7.17692 23.7205 7.17692 23.7205C8.55934 26.1501 10.8029 25.4476 11.6874 25.0417C11.8265 24.0144 12.2283 23.3134 12.6715 22.9165C9.2288 22.5146 5.60959 21.1519 5.60959 15.0624C5.60959 13.3274 6.2151 11.9096 7.2067 10.7967C7.04575 10.3963 6.51524 8.77997 7.35683 6.5909C7.35683 6.5909 8.65842 6.16375 11.6205 8.21996C12.8568 7.86772 14.1828 7.69123 15.5001 7.68525C16.8173 7.69123 18.1443 7.86772 19.3831 8.21996C22.3416 6.16375 23.6413 6.5909 23.6413 6.5909C24.485 8.77997 23.9543 10.3963 23.7933 10.7967C24.7871 11.9096 25.3885 13.3273 25.3885 15.0624C25.3885 21.1663 21.7624 22.5104 18.311 22.9038C18.8669 23.397 19.3623 24.3642 19.3623 25.8468C19.3623 27.9732 19.3443 29.6847 19.3443 30.2082C19.3443 30.6311 19.6233 31.1266 20.4091 30.9706C26.5644 28.8668 31 22.9118 31 15.8924C31 7.11514 24.0603 0 15.5001 0Z"
     fill="#161614"
     id="path3834" />
  <path
     style="fill:#ffffff;stroke-width:0.13135593"
     d="M 10.363983,30.808777 C 10.075,30.722914 9.2781093,30.363102 8.5931149,30.009195 4.3404424,27.812023 1.3874893,23.870887 0.35615172,19.015794 c -0.31796973,-1.496864 -0.31796973,-4.746589 0,-6.243452 C 0.82022916,10.587665 1.5572579,8.8277084 2.7894438,6.9618644 5.0412945,3.5519879 8.7198941,1.0915297 12.713927,0.32380141 c 1.404519,-0.26997493 4.154278,-0.26747111 5.572624,0.005074 1.147885,0.22057423 3.011315,0.83157209 3.899466,1.27859159 1.142124,0.5748474 2.734912,1.7136822 3.759638,2.6881203 3.39659,3.2299045 5.142864,7.5655807 4.932535,12.2465697 -0.120598,2.683929 -0.617346,4.558349 -1.821325,6.87255 -1.512981,2.90814 -4.356718,5.623693 -7.247275,6.920598 -1.443544,0.647674 -1.859134,0.702631 -2.31637,0.30631 -0.03612,-0.03131 -0.09523,-1.458752 -0.131356,-3.172095 -0.06499,-3.08275 -0.06944,-3.122405 -0.426906,-3.810822 -0.198676,-0.382609 -0.361229,-0.719754 -0.361229,-0.749211 0,-0.02945 0.16374,-0.05355 0.363869,-0.05355 0.200127,0 0.795878,-0.119715 1.323888,-0.266035 3.491475,-0.967536 5.133617,-3.301443 5.140471,-7.305933 0.0028,-1.614446 -0.292736,-2.698597 -1.037529,-3.806576 C 23.929716,10.830695 23.873436,10.669241 23.983203,10.383711 24.170154,9.8974026 24.161118,8.1899298 23.967339,7.386029 23.864425,6.9590844 23.703571,6.6418216 23.547738,6.558422 23.072469,6.3040657 21.328506,6.9058774 19.866665,7.8286968 19.384576,8.1330265 19.378728,8.1333883 18.419911,7.9181946 17.100936,7.622168 13.869935,7.6248414 12.563989,7.9230403 L 11.611453,8.1405417 10.92204,7.6999685 C 9.7165721,6.9296071 7.9716635,6.3293819 7.4828832,6.5169445 6.9999667,6.702257 6.6883297,9.2401542 7.0105364,10.363624 c 0.1100554,0.38374 0.084606,0.495475 -0.1861348,0.817232 -0.9049287,1.075447 -1.331341,2.748966 -1.2166189,4.774806 0.1280133,2.260544 0.9570493,4.197321 2.2502586,5.257009 0.9261906,0.758944 3.1337047,1.643261 4.1020587,1.643261 0.441885,0 0.4689,0.176692 0.123311,0.806531 -0.172832,0.314989 -0.352461,0.756305 -0.399177,0.980703 -0.06887,0.330825 -0.179803,0.436421 -0.586478,0.558263 -1.381414,0.413883 -2.7394744,0.02494 -3.4667624,-0.992854 -1.1281262,-1.578747 -1.8706616,-2.140778 -2.8283208,-2.140778 -0.7218215,0 -0.9350299,0.288562 -0.5054503,0.684092 1.2321251,1.134461 1.4837346,1.438763 1.8934602,2.289987 0.5090112,1.057497 1.0204959,1.642466 1.8019438,2.060824 0.4596324,0.246069 0.7432612,0.285012 2.0758055,0.285012 h 1.543432 v 1.518326 c 0,1.939899 -0.183113,2.219105 -1.247881,1.902739 z"
     id="path3864"
     inkscape:connector-curvature="0" />
</svg>
