<?xml version="1.0" encoding="UTF-8" standalone="no"?>
<svg
   xmlns:dc="http://purl.org/dc/elements/1.1/"
   xmlns:cc="http://creativecommons.org/ns#"
   xmlns:rdf="http://www.w3.org/1999/02/22-rdf-syntax-ns#"
   xmlns:svg="http://www.w3.org/2000/svg"
   xmlns="http://www.w3.org/2000/svg"
   xmlns:sodipodi="http://sodipodi.sourceforge.net/DTD/sodipodi-0.dtd"
   xmlns:inkscape="http://www.inkscape.org/namespaces/inkscape"
   width="33"
   height="46"
   viewBox="0 0 33 46"
   fill="none"
   version="1.1"
   id="svg3856"
   sodipodi:docname="lock-white.svg"
   inkscape:version="">
  <metadata
     id="metadata3862">
    <rdf:RDF>
      <cc:Work
         rdf:about="">
        <dc:format>image/svg+xml</dc:format>
        <dc:type
           rdf:resource="http://purl.org/dc/dcmitype/StillImage" />
      </cc:Work>
    </rdf:RDF>
  </metadata>
  <defs
     id="defs3860" />
  <sodipodi:namedview
     pagecolor="#ffffff"
     bordercolor="#666666"
     borderopacity="1"
     objecttolerance="10"
     gridtolerance="10"
     guidetolerance="10"
     inkscape:pageopacity="0"
     inkscape:pageshadow="2"
     inkscape:window-width="2534"
     inkscape:window-height="1344"
     id="namedview3858"
     showgrid="false"
     inkscape:zoom="5.1304348"
     inkscape:cx="-15.855932"
     inkscape:cy="23"
     inkscape:window-x="12"
     inkscape:window-y="83"
     inkscape:window-maximized="0"
     inkscape:current-layer="svg3856" />
  <ellipse
     cx="16.5"
     cy="29.3797"
     rx="14.5"
     ry="14.6203"
     id="ellipse3844"
     style="fill:none"
     stroke-width="3"
     stroke="black" />
  <ellipse
     cx="16.5"
     cy="28.8481"
     rx="2.9"
     ry="2.92405"
     fill="black"
     id="ellipse3846" />
  <rect
     x="15.7091"
     y="30.7089"
     width="1.58182"
     height="4.25316"
     fill="black"
     id="rect3848" />
  <path
     d="M16.5001 35.4937C16.2364 35.4937 15.9728 35.2279 15.9728 34.962H17.0273C17.0273 35.2279 16.7637 35.4937 16.5001 35.4937Z"
     fill="black"
     stroke="black"
     id="path3850" />
  <path
     d="M27.0455 19.0127C27.0455 19.0127 27.3091 13.1646 27.0455 10.5063C26.7818 7.8481 24.1455 2 16.5 2"
     stroke="black"
     stroke-width="3"
     id="path3852" />
  <path
     d="M6.33528 19.0127C6.33528 19.0127 6.07165 13.1646 6.33528 10.5063C6.59892 7.8481 9.23528 2 16.8807 2"
     stroke="black"
     stroke-width="3"
     id="path3854" />
  <path
     style="fill:#ffffff;stroke-width:0.19491525"
     d="M 14.726271,45.284306 C 6.6872529,44.354274 0.58354939,37.469214 0.59747589,29.346836 0.60316836,26.026808 1.8424206,22.382187 3.8757949,19.705356 l 1.0072559,-1.326 v -4.041947 c 0,-4.5836797 0.1548817,-5.4882471 1.3204297,-7.7118105 1.9494987,-3.7191376 5.8899415,-5.96288664 10.4719435,-5.96288664 4.278518,0 7.871333,1.83951834 10.012974,5.12663604 1.559232,2.3931995 1.66855,2.9150095 1.741078,8.3107001 l 0.06403,4.763607 0.546443,0.69402 c 3.648322,4.633608 4.367115,11.593952 1.738915,16.838583 -3.073346,6.132929 -9.432561,9.653917 -16.052597,8.888048 z m 5.845587,-3.387789 c 6.656092,-2.244644 10.316983,-9.091071 8.551318,-15.99228 -0.862177,-3.369874 -3.591787,-6.727623 -6.710457,-8.254668 -2.186586,-1.070656 -3.560507,-1.393637 -5.928351,-1.393637 -3.629543,0 -6.5433778,1.186998 -9.0859533,3.701311 -2.6104435,2.581428 -3.8976915,5.625409 -3.9161295,9.260554 -0.016352,3.223892 0.8103135,5.771717 2.67946,8.258231 1.6716846,2.223831 4.7107288,4.168598 7.5065288,4.803632 1.935118,0.43954 4.962249,0.271537 6.903584,-0.383143 z M 25.706185,12.552542 C 25.637159,10.003009 25.613148,9.875333 24.933993,8.4465656 22.850587,4.0636141 17.796948,2.2802349 12.812782,4.1691098 11.359187,4.7199863 9.4503154,6.4765546 8.6337938,8.0146689 7.8687871,9.4557425 7.6118644,10.892185 7.6118644,13.72823 v 2.273584 l 1.9104993,-0.952636 c 4.4669743,-2.227376 9.5568473,-2.241955 13.9445063,-0.03994 0.745065,0.373923 1.539163,0.809991 1.764661,0.969041 0.385683,0.272032 0.414023,0.257053 0.477946,-0.252599 0.03737,-0.297979 0.03589,-1.72589 -0.0033,-3.173136 z"
     id="path3995"
     inkscape:connector-curvature="0" />
  <path
     style="fill:#ffffff;stroke-width:0.19491525"
     d="m 15.965417,35.636119 c -0.249745,-0.249745 -0.288692,-0.641992 -0.211078,-2.125822 l 0.09517,-1.819568 -0.594983,-0.307678 c -1.397054,-0.722444 -1.907097,-2.285522 -1.213385,-3.71854 0.810564,-1.674403 2.711336,-2.124405 4.194607,-0.993059 1.588761,1.211807 1.300998,3.765133 -0.53111,4.712553 l -0.59314,0.306724 0.09656,1.846029 c 0.07544,1.442288 0.03537,1.907222 -0.183233,2.125822 -0.361991,0.361992 -0.678874,0.354077 -1.059412,-0.02646 z"
     id="path3997"
     inkscape:connector-curvature="0" />
</svg>
